<svg width="163" height="146" viewBox="0 0 163 146" fill="none" xmlns="http://www.w3.org/2000/svg">
<path d="M162.375 0.304372C159.883 4.03869 153.625 4.05918 153.625 4.05918L155.242 0C147.016 2.05573 138.631 10.7521 138.631 10.7521L138.615 5.65377L127.537 14.0724L129.775 7.82222L125.353 10.7818C119.977 13.9689 113.878 15.254 113.878 15.254C104.649 15.8258 91.4605 26.956 91.4605 26.956C93.0633 22.8271 91.9104 14.3183 91.9104 14.3183C83.7892 30.2148 68.3167 37.3668 66.1003 38.2696C63.8786 39.1694 52.2177 44.5055 41.6235 54.1897C31.0367 63.8647 27.6723 80.043 27.6723 80.043C26.8249 83.0794 18.9392 88.1757 15.3063 92.9348C13.6443 95.1084 4.31671 106.756 1.05996 121.003C-1.69765 133.098 1.79677 144.767 1.79677 144.767C1.79677 144.767 2.4095 149.186 5.76257 141.294L7.15814 141.014C7.15814 141.014 5.45309 144.701 6.50139 144.341C7.54869 143.984 13.5683 137.493 18.4983 132.007C23.4316 126.515 40.234 113.019 55.3678 112.04C55.3678 112.04 65.6392 108.164 73.2483 114.115C73.2483 114.115 78.2657 120.325 86.0201 119.552C86.0201 119.552 86.93 119.298 89.4089 120.979L89.2636 117.74C89.2636 117.74 98.1689 122.967 107.515 119.272L105.876 116.95C105.876 116.95 107.555 114.476 112.508 117.83L112.801 115.623C112.801 115.623 121.602 120.312 126.122 120.161L124.882 116.181C124.882 116.181 134.203 114.874 143.436 114.304C143.436 114.304 154.936 111.824 162.526 120.209L162.374 0.304372" fill="white"/>
</svg>
