<svg xmlns="http://www.w3.org/2000/svg" width="627" height="148" fill="none">
  <path fill="#fff" d="M206.439 1.02h20.316l27.157 77.36h.416l26.951-77.36h20.525v146.097h-21.147V58.27h-.416l-20.938 62.791h-10.572l-20.733-62.79h-.417v88.846h-21.146V1.019M392.417 113.268c0 19.084-15.341 34.063-34.207 34.063s-34.211-14.979-34.211-34.063V0h21.15v111.217c0 10.26 5.597 15.185 13.06 15.185 7.461 0 13.061-4.925 13.061-15.185V0h21.146v113.268M412.936 1.02h20.314l31.928 88.026h.413V1.019h21.15v146.098h-19.904l-32.344-87.821h-.414v87.821h-21.146V1.019M507.96 146.098h21.149V0H507.96v146.098zM553.196 0h20.32l31.924 88.026h.417V0H627v146.098h-19.901l-32.344-87.822h-.416v87.822h-21.143V0zM162.375.304c-2.492 3.735-8.75 3.755-8.75 3.755L155.242 0c-8.226 2.056-16.611 10.752-16.611 10.752l-.016-5.098-11.078 8.418 2.238-6.25-4.422 2.96c-5.376 3.187-11.475 4.472-11.475 4.472-9.229.572-22.418 11.702-22.418 11.702 1.603-4.129.45-12.638.45-12.638C83.79 30.215 68.317 37.367 66.1 38.27c-2.221.9-13.882 6.235-24.476 15.92-10.587 9.675-13.952 25.853-13.952 25.853-.847 3.036-8.733 8.133-12.366 12.892-1.662 2.173-10.99 13.821-14.246 28.068-2.758 12.095.737 23.764.737 23.764s.613 4.419 3.966-3.473l1.395-.28s-1.705 3.687-.657 3.327c1.048-.357 7.067-6.848 11.997-12.334 4.934-5.492 21.736-18.988 36.87-19.967 0 0 10.271-3.876 17.88 2.075 0 0 5.018 6.21 12.772 5.437 0 0 .91-.254 3.389 1.427l-.145-3.239s8.905 5.227 18.251 1.532l-1.639-2.322s1.679-2.474 6.632.88l.293-2.207s8.801 4.689 13.321 4.538l-1.24-3.98s9.321-1.307 18.554-1.877c0 0 11.5-2.48 19.09 5.905L162.374.304"/>
</svg>
